<?xml version="1.0" standalone="no"?><!DOCTYPE svg PUBLIC "-//W3C//DTD SVG 1.1//EN" "http://www.w3.org/Graphics/SVG/1.1/DTD/svg11.dtd"><svg t="1503993077780" class="icon" style="" viewBox="0 0 1024 1024" version="1.1" xmlns="http://www.w3.org/2000/svg" p-id="1128" xmlns:xlink="http://www.w3.org/1999/xlink" width="64" height="64"><defs><style type="text/css"></style></defs><path d="M934.36 571.131c0 9.151-3.344 17.07-10.029 23.758-6.688 6.688-14.607 10.031-23.759 10.031H782.311c0 60.187-11.791 111.222-35.372 153.105l109.813 110.343c6.688 6.688 10.031 14.606 10.031 23.758s-3.344 17.071-10.031 23.759c-6.336 6.686-14.255 10.03-23.758 10.03s-17.422-3.345-23.758-10.03L704.701 811.877c-1.759 1.76-4.398 4.049-7.918 6.864-3.521 2.815-10.911 7.831-22.175 15.047-11.263 7.216-22.702 13.639-34.317 19.271-11.614 5.631-26.046 10.735-43.291 15.31-17.247 4.575-34.317 6.864-51.213 6.864V402.187H478.21v473.046c-17.951 0-35.813-2.375-53.588-7.127s-33.085-10.559-45.932-17.422c-12.848-6.864-24.462-13.728-34.845-20.592-10.383-6.863-18.039-12.582-22.966-17.158l-7.919-7.391-96.614 109.287c-7.04 7.391-15.487 11.086-25.343 11.086-8.447 0-16.014-2.815-22.701-8.446-6.688-6.336-10.295-14.167-10.824-23.495-0.527-9.326 2.201-17.51 8.184-24.549L272.309 749.58c-20.414-40.124-30.621-88.344-30.621-144.658H123.426c-9.152 0-17.071-3.344-23.757-10.031-6.688-6.688-10.031-14.606-10.031-23.758 0-9.15 3.344-17.07 10.031-23.758 6.687-6.688 14.606-10.03 23.757-10.03h118.262V382.126l-91.336-91.336c-6.687-6.688-10.03-14.606-10.03-23.758s3.344-17.07 10.03-23.757c6.688-6.688 14.607-10.031 23.758-10.031s17.071 3.344 23.758 10.031l91.335 91.335h445.593l91.337-91.335c6.687-6.688 14.606-10.031 23.757-10.031 9.151 0 17.07 3.344 23.758 10.031 6.688 6.687 10.031 14.606 10.031 23.757s-3.344 17.07-10.031 23.758l-91.335 91.336v155.219h118.261c9.151 0 17.07 3.343 23.758 10.03s10.031 14.607 10.031 23.758l-0.003-0.002z m-253.417-304.1h-337.89c0-46.812 16.455-86.673 49.363-119.583 32.91-32.909 72.771-49.364 119.583-49.364 46.813 0 86.673 16.455 119.582 49.364s49.364 72.771 49.364 119.583h-0.002z" p-id="1129" fill="#1D8CE0" class="selected"></path></svg>